<svg width="205" height="171" viewBox="0 0 205 171" fill="none" xmlns="http://www.w3.org/2000/svg">
<g clip-path="url(#clip0_87_426)">
<g opacity="0.1">
<path d="M156.719 83.355C158.837 75.599 169.616 75.8021 171.45 83.6388L171.928 83.5268L171.45 83.6388L192.829 174.972C197.577 195.256 182.581 214.726 162.276 214.726C141.484 214.726 126.402 194.372 132.019 173.803L156.719 83.355Z" stroke="white"/>
<path d="M197.701 55.0203C190.129 52.8818 190.333 41.9793 197.977 40.1286L287.176 18.5335C306.957 13.7448 325.983 28.868 325.983 49.4014C325.983 70.4274 306.094 85.6357 286.036 79.9703L197.701 55.0203Z" stroke="white"/>
<path d="M51.0104 -66.4778L51.0104 -66.4778C65.7287 -81.5565 90.4303 -78.0864 100.641 -59.4906L145.582 22.3596C147.513 25.8779 146.535 29.5502 144.225 31.8297C141.917 34.1074 138.314 34.9636 134.969 32.8631L56.813 -16.211C39.4744 -27.0981 36.6239 -51.7396 51.0104 -66.4778Z" stroke="white"/>
<path d="M132.019 -77.5774L131.536 -77.4457L132.019 -77.5774C126.402 -98.1456 141.484 -118.5 162.276 -118.5C182.581 -118.5 197.577 -99.0294 192.829 -78.7462L171.45 12.5874C169.616 20.4241 158.837 20.6272 156.719 12.8711L132.019 -77.5774Z" stroke="white"/>
<path d="M128.507 40.1286C136.15 41.9793 136.354 52.8818 128.783 55.0203L40.4477 79.9703C20.3898 85.6357 0.500001 70.4274 0.5 49.4017C0.499999 28.868 19.5268 13.7448 39.3068 18.5335L128.507 40.1286Z" stroke="white"/>
<path d="M136.905 63.3631C140.25 61.2626 143.853 62.1188 146.161 64.3964C148.471 66.6758 149.449 70.348 147.517 73.8664L102.576 155.717C92.3659 174.313 67.6643 177.782 52.9457 162.705C38.5595 147.966 41.4101 123.325 58.7486 112.437L136.905 63.3631Z" stroke="white"/>
<path d="M194.095 63.3631L194.36 62.9411L194.095 63.3631L272.251 112.437C289.59 123.325 292.44 147.966 278.054 162.705C263.336 177.782 238.634 174.313 228.424 155.717L183.483 73.8664L183.05 74.1038L183.483 73.8664C181.551 70.348 182.529 66.6758 184.839 64.3964C187.147 62.1187 190.75 61.2626 194.095 63.3631Z" stroke="white"/>
</g>
</g>
<defs>
<clipPath id="clip0_87_426">
<rect width="205" height="171" fill="white"/>
</clipPath>
</defs>
</svg>
