<svg width="90" height="31" viewBox="0 0 90 31" fill="none" xmlns="http://www.w3.org/2000/svg">
<path d="M35.8081 28.7511V28.8927H35.9466H37.8402H37.9786V28.7511V12.9H42.259H42.3975V12.7584V10.8978V10.7562H42.259H37.9786V8.7398C37.9786 6.91877 38.4101 5.65519 39.2796 4.84304C40.1522 4.02826 41.4936 3.64123 43.3731 3.64123C44.2183 3.64123 45.0274 3.67555 45.8338 3.77637V28.7511V28.8927H45.9723H47.8659H48.0044V28.7511V2.17062V2.05066L47.8889 2.03095C46.3243 1.76428 44.9795 1.61133 43.3731 1.61133C40.9218 1.61133 39.026 2.19472 37.7424 3.39022C36.4564 4.58789 35.8081 6.37828 35.8081 8.7398V9.76504V11.6257V28.7511ZM70.2554 24.6679L70.3194 24.559L70.2205 24.4821L68.5867 23.2116L68.4587 23.112L68.3815 23.2564C67.3322 25.2173 65.0805 26.6382 62.079 26.6382C57.9653 26.6382 54.8604 23.9478 54.3622 19.8206H71.028H71.1665V19.679C71.1665 19.5323 71.1753 19.3848 71.1848 19.2322V19.23C71.1939 19.0795 71.2036 18.9239 71.2036 18.7677C71.2036 13.505 67.6302 8.63938 61.8934 8.63938C56.132 8.63938 52.1377 13.0352 52.1377 18.6917C52.1377 24.5041 56.2472 28.744 62.0419 28.744C65.7521 28.744 68.7013 27.3037 70.2554 24.6679ZM79.8203 9.395C78.8594 9.9499 78.0236 10.7948 77.3997 12.0101V8.91548V8.77389H77.2613H75.4045H75.266V8.91548V28.7511V28.8927H75.4045H77.2613H77.3997V28.7511V17.3453C77.3997 14.9463 78.1411 13.2682 79.2593 12.1891C80.3794 11.1083 81.8931 10.6139 83.4624 10.6139H83.6009V10.4724V8.64968V8.50809H83.4624C82.1828 8.50809 80.923 8.75817 79.8203 9.395ZM87.0876 28.7511V28.8927H87.2261H89.0826H89.221V28.7511V8.91548V8.77389H89.0826H87.2261H87.0876V8.91548V28.7511ZM61.8934 10.7452C65.4198 10.7452 68.523 13.2139 68.9816 17.6768H54.3597C54.7854 13.6144 57.7856 10.7452 61.8934 10.7452ZM88.1543 5.02881C89.0477 5.02881 89.7782 4.28194 89.7782 3.36835C89.7782 2.49042 89.0455 1.74584 88.1543 1.74584C87.2632 1.74584 86.5307 2.49042 86.5307 3.36835C86.5307 4.28194 87.261 5.02881 88.1543 5.02881Z" fill="#2C3B8E"/>
<path d="M14.274 18.5183C14.48 17.7659 15.5298 17.786 15.7081 18.5458L17.6608 26.8662C18.1009 28.7413 16.7112 30.5438 14.8256 30.5438C12.8949 30.5438 11.4973 28.6594 12.0179 26.7581L14.274 18.5183Z" fill="#2C3B8E"/>
<path d="M18.1076 15.9338C17.3719 15.7232 17.3915 14.6497 18.1345 14.4673L26.2709 12.4704C28.1045 12.0204 29.8671 13.4416 29.8671 15.3697C29.8671 17.3441 28.0244 18.7733 26.1652 18.241L18.1076 15.9338Z" fill="#2C3B8E"/>
<path d="M21.4428 9.82447C20.7769 10.2075 20.0485 9.43421 20.4478 8.7681L24.8203 1.4726C25.8056 -0.171363 28.0346 -0.441075 29.368 0.922355C30.7332 2.31846 30.4183 4.66145 28.7358 5.62944L21.4428 9.82447Z" fill="#FFC42E"/>
<path d="M13.3661 12.8706C13.7406 13.5515 12.9845 14.2964 12.3331 13.8881L5.19892 9.41671C3.59133 8.40911 3.32756 6.12963 4.66086 4.76621C6.02607 3.3701 8.31727 3.69194 9.26382 5.41275L13.3661 12.8706Z" fill="#2C3B8E"/>
<path d="M14.274 12.0254C14.48 12.7778 15.5298 12.7577 15.7081 11.9979L17.6608 3.67749C18.1009 1.80254 16.7112 0 14.8256 0C12.8949 0 11.4973 1.88433 12.0179 3.78558L14.274 12.0254Z" fill="#2C3B8E"/>
<path d="M11.7595 15.9338C12.4952 15.7232 12.4755 14.6497 11.7326 14.4673L3.59614 12.4704C1.76269 12.0204 -8.22462e-08 13.4416 0 15.3698C8.44615e-08 17.3441 1.84266 18.7733 3.70187 18.241L11.7595 15.9338Z" fill="#2C3B8E"/>
<path d="M13.5414 17.671C13.9159 16.99 13.1598 16.2452 12.5084 16.6534L5.37422 21.1249C3.76663 22.1325 3.50286 24.4119 4.83613 25.7754C6.20136 27.1714 8.49257 26.8496 9.43912 25.1288L13.5414 17.671Z" fill="#2C3B8E"/>
<path d="M16.7363 17.671C16.3618 16.99 17.118 16.2452 17.7693 16.6534L24.9035 21.1249C26.5111 22.1325 26.7748 24.4119 25.4416 25.7754C24.0763 27.1714 21.7852 26.8496 20.8386 25.1288L16.7363 17.671Z" fill="#2C3B8E"/>
</svg>
