<svg display="none">
    <def>
        <symbol id="fb-icon" viewBox="0 0 20 20" fill="none" xmlns="http://www.w3.org/2000/svg">
        <path d="M12.4893 4.63607H13.9386V2.11179C13.6886 2.0774 12.8287 2 11.8271 2C9.73747 2 8.30598 3.3144 8.30598 5.73019V7.95349H6V10.7754H8.30598V17.876H11.1332V10.7761H13.3459L13.6972 7.95415H11.1326V6.01C11.1332 5.19438 11.3528 4.63607 12.4893 4.63607V4.63607Z" fill="#121212"/>
        </symbol>

        <symbol id="tw-icon" viewBox="0 0 20 20" fill="none" xmlns="http://www.w3.org/2000/svg">
        <path d="M19.5556 3.881C18.8283 4.2 18.0534 4.41144 17.2456 4.51411C18.0767 4.01789 18.711 3.23811 19.0092 2.29822C18.2343 2.76022 17.3788 3.08656 16.467 3.26867C15.7312 2.48522 14.6826 2 13.5386 2C11.319 2 9.53211 3.80156 9.53211 6.01011C9.53211 6.32789 9.559 6.63344 9.625 6.92433C6.292 6.76178 3.34278 5.16433 1.36156 2.73089C1.01567 3.331 0.812778 4.01789 0.812778 4.75733C0.812778 6.14578 1.52778 7.37656 2.59356 8.08911C1.94944 8.07689 1.31756 7.88989 0.782222 7.59533C0.782222 7.60756 0.782222 7.62344 0.782222 7.63933C0.782222 9.58756 2.17189 11.2058 3.99422 11.5786C3.66789 11.6678 3.31222 11.7106 2.94311 11.7106C2.68644 11.7106 2.42733 11.6959 2.18411 11.6421C2.70356 13.2298 4.17756 14.397 5.93022 14.4349C4.56622 15.5019 2.83433 16.1448 0.959444 16.1448C0.630667 16.1448 0.315333 16.1301 0 16.0898C1.77589 17.235 3.88056 17.8889 6.15022 17.8889C13.5276 17.8889 17.5609 11.7778 17.5609 6.48067C17.5609 6.30344 17.5548 6.13233 17.5462 5.96244C18.3419 5.39778 19.0104 4.69256 19.5556 3.881Z" fill="#121212"/>
        </symbol>

        <symbol id="dashboard-icon" viewBox="0 0 16 16" fill="none" xmlns="http://www.w3.org/2000/svg">
        <path d="M2.66667 8.66667H6.66667C7.03333 8.66667 7.33333 8.36667 7.33333 8V2.66667C7.33333 2.3 7.03333 2 6.66667 2H2.66667C2.3 2 2 2.3 2 2.66667V8C2 8.36667 2.3 8.66667 2.66667 8.66667ZM2.66667 14H6.66667C7.03333 14 7.33333 13.7 7.33333 13.3333V10.6667C7.33333 10.3 7.03333 10 6.66667 10H2.66667C2.3 10 2 10.3 2 10.6667V13.3333C2 13.7 2.3 14 2.66667 14ZM9.33333 14H13.3333C13.7 14 14 13.7 14 13.3333V8C14 7.63333 13.7 7.33333 13.3333 7.33333H9.33333C8.96667 7.33333 8.66667 7.63333 8.66667 8V13.3333C8.66667 13.7 8.96667 14 9.33333 14ZM8.66667 2.66667V5.33333C8.66667 5.7 8.96667 6 9.33333 6H13.3333C13.7 6 14 5.7 14 5.33333V2.66667C14 2.3 13.7 2 13.3333 2H9.33333C8.96667 2 8.66667 2.3 8.66667 2.66667Z" fill="currentColor"/>
        </symbol>

        <symbol id="plans-icon" viewBox="0 0 16 16" fill="none" xmlns="http://www.w3.org/2000/svg">
        <path d="M12.6667 2.33333H9.88C9.6 1.56 8.86667 1 8 1C7.13333 1 6.4 1.56 6.12 2.33333H3.33333C2.6 2.33333 2 2.93333 2 3.66667V13C2 13.7333 2.6 14.3333 3.33333 14.3333H12.6667C13.4 14.3333 14 13.7333 14 13V3.66667C14 2.93333 13.4 2.33333 12.6667 2.33333ZM8 2.33333C8.36667 2.33333 8.66667 2.63333 8.66667 3C8.66667 3.36667 8.36667 3.66667 8 3.66667C7.63333 3.66667 7.33333 3.36667 7.33333 3C7.33333 2.63333 7.63333 2.33333 8 2.33333ZM8.66667 11.6667H5.33333C4.96667 11.6667 4.66667 11.3667 4.66667 11C4.66667 10.6333 4.96667 10.3333 5.33333 10.3333H8.66667C9.03333 10.3333 9.33333 10.6333 9.33333 11C9.33333 11.3667 9.03333 11.6667 8.66667 11.6667ZM10.6667 9H5.33333C4.96667 9 4.66667 8.7 4.66667 8.33333C4.66667 7.96667 4.96667 7.66667 5.33333 7.66667H10.6667C11.0333 7.66667 11.3333 7.96667 11.3333 8.33333C11.3333 8.7 11.0333 9 10.6667 9ZM10.6667 6.33333H5.33333C4.96667 6.33333 4.66667 6.03333 4.66667 5.66667C4.66667 5.3 4.96667 5 5.33333 5H10.6667C11.0333 5 11.3333 5.3 11.3333 5.66667C11.3333 6.03333 11.0333 6.33333 10.6667 6.33333Z" fill="currentColor"/>
        </symbol>

        <symbol id="report-icon" viewBox="0 0 16 16" fill="none" xmlns="http://www.w3.org/2000/svg">
        <path d="M12.6667 2H3.33333C2.6 2 2 2.6 2 3.33333V12.6667C2 13.4 2.6 14 3.33333 14H12.6667C13.4 14 14 13.4 14 12.6667V3.33333C14 2.6 13.4 2 12.6667 2ZM5.33333 11.3333C4.96667 11.3333 4.66667 11.0333 4.66667 10.6667V7.33333C4.66667 6.96667 4.96667 6.66667 5.33333 6.66667C5.7 6.66667 6 6.96667 6 7.33333V10.6667C6 11.0333 5.7 11.3333 5.33333 11.3333ZM8 11.3333C7.63333 11.3333 7.33333 11.0333 7.33333 10.6667V5.33333C7.33333 4.96667 7.63333 4.66667 8 4.66667C8.36667 4.66667 8.66667 4.96667 8.66667 5.33333V10.6667C8.66667 11.0333 8.36667 11.3333 8 11.3333ZM10.6667 11.3333C10.3 11.3333 10 11.0333 10 10.6667V9.33333C10 8.96667 10.3 8.66667 10.6667 8.66667C11.0333 8.66667 11.3333 8.96667 11.3333 9.33333V10.6667C11.3333 11.0333 11.0333 11.3333 10.6667 11.3333Z" fill="currentColor"/>
        </symbol>

        <symbol id="people-icon"  viewBox="0 0 16 16" fill="none" xmlns="http://www.w3.org/2000/svg">
        <path d="M11 7C12.1067 7 12.9933 6.10667 12.9933 5C12.9933 3.89333 12.1067 3 11 3C9.89333 3 9 3.89333 9 5C9 6.10667 9.89333 7 11 7ZM5.66667 7C6.77333 7 7.66 6.10667 7.66 5C7.66 3.89333 6.77333 3 5.66667 3C4.56 3 3.66667 3.89333 3.66667 5C3.66667 6.10667 4.56 7 5.66667 7ZM5.66667 8.33333C4.11333 8.33333 1 9.11333 1 10.6667V11.6667C1 12.0333 1.3 12.3333 1.66667 12.3333H9.66667C10.0333 12.3333 10.3333 12.0333 10.3333 11.6667V10.6667C10.3333 9.11333 7.22 8.33333 5.66667 8.33333ZM11 8.33333C10.8067 8.33333 10.5867 8.34667 10.3533 8.36667C10.3667 8.37333 10.3733 8.38667 10.38 8.39333C11.14 8.94667 11.6667 9.68667 11.6667 10.6667V11.6667C11.6667 11.9 11.62 12.1267 11.5467 12.3333H15C15.3667 12.3333 15.6667 12.0333 15.6667 11.6667V10.6667C15.6667 9.11333 12.5533 8.33333 11 8.33333Z" fill="currentColor"/>
        </symbol>

        <symbol id="wallet-icon" viewBox="0 0 16 16" fill="none" xmlns="http://www.w3.org/2000/svg">
        <path d="M6.66667 10.6667V5.33333C6.66667 4.6 7.26 4 8 4H14V3.33333C14 2.6 13.4 2 12.6667 2H3.33333C2.59333 2 2 2.6 2 3.33333V12.6667C2 13.4 2.59333 14 3.33333 14H12.6667C13.4 14 14 13.4 14 12.6667V12H8C7.26 12 6.66667 11.4 6.66667 10.6667ZM8.66667 5.33333C8.3 5.33333 8 5.63333 8 6V10C8 10.3667 8.3 10.6667 8.66667 10.6667H14.6667V5.33333H8.66667ZM10.6667 9C10.1133 9 9.66667 8.55333 9.66667 8C9.66667 7.44667 10.1133 7 10.6667 7C11.22 7 11.6667 7.44667 11.6667 8C11.6667 8.55333 11.22 9 10.6667 9Z" fill="currentColor"/>
        </symbol>

        <symbol id="upload-icon" viewBox="0 0 16 16" fill="none" xmlns="http://www.w3.org/2000/svg">
        <path d="M12.9 7.02667C12.4467 4.72667 10.4267 3 8 3C6.07333 3 4.4 4.09333 3.56667 5.69333C1.56 5.90667 0 7.60667 0 9.66667C0 11.8733 1.79333 13.6667 4 13.6667H12.6667C14.5067 13.6667 16 12.1733 16 10.3333C16 8.57333 14.6333 7.14667 12.9 7.02667ZM9.33333 9V11.6667H6.66667V9H4.66667L7.76667 5.9C7.9 5.76667 8.10667 5.76667 8.24 5.9L11.3333 9H9.33333Z" fill="currentColor"/>
        </symbol>

        <symbol id="message-icon" viewBox="0 0 16 16" fill="none" xmlns="http://www.w3.org/2000/svg">
        <path d="M12.8 2H3.2C2.54 2 2.006 2.54 2.006 3.2L2 14L4.4 11.6H12.8C13.46 11.6 14 11.06 14 10.4V3.2C14 2.54 13.46 2 12.8 2ZM11 9.2H5C4.67 9.2 4.4 8.93 4.4 8.6C4.4 8.27 4.67 8 5 8H11C11.33 8 11.6 8.27 11.6 8.6C11.6 8.93 11.33 9.2 11 9.2ZM11 7.4H5C4.67 7.4 4.4 7.13 4.4 6.8C4.4 6.47 4.67 6.2 5 6.2H11C11.33 6.2 11.6 6.47 11.6 6.8C11.6 7.13 11.33 7.4 11 7.4ZM11 5.6H5C4.67 5.6 4.4 5.33 4.4 5C4.4 4.67 4.67 4.4 5 4.4H11C11.33 4.4 11.6 4.67 11.6 5C11.6 5.33 11.33 5.6 11 5.6Z" fill="currentColor"/>
        </symbol>

        <symbol id="refer-icon" viewBox="0 0 16 16" fill="none" xmlns="http://www.w3.org/2000/svg">
        <path d="M6.09111 7.66667C7.49692 7.66667 8.63656 6.622 8.63656 5.33333C8.63656 4.04467 7.49692 3 6.09111 3C4.68529 3 3.54565 4.04467 3.54565 5.33333C3.54565 6.622 4.68529 7.66667 6.09111 7.66667Z" fill="currentColor"/>
        <path d="M6.09091 8.83325C4.39182 8.83325 1 9.61492 1 11.1666V11.7499C1 12.0708 1.28636 12.3333 1.63636 12.3333H10.5455C10.8955 12.3333 11.1818 12.0708 11.1818 11.7499V11.1666C11.1818 9.61492 7.79 8.83325 6.09091 8.83325Z" fill="currentColor"/>
        <path d="M13.0908 6.5V4.75H11.818V6.5H9.90894V7.66667H11.818V9.41667H13.0908V7.66667H14.9998V6.5H13.0908Z" fill="currentColor"/>
        </symbol>

        <symbol id="settings-icon"  viewBox="0 0 16 16" fill="none" xmlns="http://www.w3.org/2000/svg">
        <path d="M13.4396 8.32C13.4662 8.10667 13.4862 7.89333 13.4862 7.66667C13.4862 7.44 13.4662 7.22667 13.4396 7.01333L14.8462 5.91333C14.9729 5.81333 15.0062 5.63333 14.9262 5.48667L13.5929 3.18C13.5129 3.03333 13.3329 2.98 13.1862 3.03333L11.5262 3.7C11.1796 3.43333 10.8062 3.21333 10.3996 3.04667L10.1462 1.28C10.1262 1.12 9.98622 1 9.81955 1H7.15289C6.98622 1 6.84622 1.12 6.82622 1.28L6.57289 3.04667C6.16622 3.21333 5.79289 3.44 5.44622 3.7L3.78622 3.03333C3.63289 2.97333 3.45955 3.03333 3.37955 3.18L2.04622 5.48667C1.95955 5.63333 1.99955 5.81333 2.12622 5.91333L3.53289 7.01333C3.50622 7.22667 3.48622 7.44667 3.48622 7.66667C3.48622 7.88667 3.50622 8.10667 3.53289 8.32L2.12622 9.42C1.99955 9.52 1.96622 9.7 2.04622 9.84667L3.37955 12.1533C3.45955 12.3 3.63955 12.3533 3.78622 12.3L5.44622 11.6333C5.79289 11.9 6.16622 12.12 6.57289 12.2867L6.82622 14.0533C6.84622 14.2133 6.98622 14.3333 7.15289 14.3333H9.81955C9.98622 14.3333 10.1262 14.2133 10.1462 14.0533L10.3996 12.2867C10.8062 12.12 11.1796 11.8933 11.5262 11.6333L13.1862 12.3C13.3396 12.36 13.5129 12.3 13.5929 12.1533L14.9262 9.84667C15.0062 9.7 14.9729 9.52 14.8462 9.42L13.4396 8.32V8.32ZM8.48622 10C7.19955 10 6.15289 8.95333 6.15289 7.66667C6.15289 6.38 7.19955 5.33333 8.48622 5.33333C9.77289 5.33333 10.8196 6.38 10.8196 7.66667C10.8196 8.95333 9.77289 10 8.48622 10Z" fill="currentColor"/>
        </symbol>

        <symbol id="logout-icon" viewBox="0 0 16 16" fill="none" xmlns="http://www.w3.org/2000/svg">
        <path d="M6.72667 10.3933L7.66667 11.3333L11 8L7.66667 4.66667L6.72667 5.60667L8.44667 7.33333H2V8.66667H8.44667L6.72667 10.3933ZM12.6667 2H3.33333C2.59333 2 2 2.6 2 3.33333V6H3.33333V3.33333H12.6667V12.6667H3.33333V10H2V12.6667C2 13.4 2.59333 14 3.33333 14H12.6667C13.4 14 14 13.4 14 12.6667V3.33333C14 2.6 13.4 2 12.6667 2Z" fill="currentColor"/>
        </symbol>

        <symbol id="add-icon" viewBox="0 0 14 14" fill="none" xmlns="http://www.w3.org/2000/svg">
        <path d="M14 8H8V14H6V8H0V6H6V0H8V6H14V8Z" fill="currentColor"/>
        </symbol>

        <symbol id="ap-icon" viewBox="0 0 40 40" fill="none" xmlns="http://www.w3.org/2000/svg">
        <circle opacity="0.2" cx="20" cy="20" r="20" fill="#275FFF"/>
        <path d="M20 10.02C14.49 10.02 10.02 14.49 10.02 20C10.02 25.51 14.49 29.98 20 29.98C25.51 29.98 29.98 25.51 29.98 20C29.98 14.49 25.51 10.02 20 10.02ZM19.48 25.88V21.74H16.82C16.45 21.74 16.2 21.34 16.38 21.01L20.06 13.84C20.29 13.37 21 13.54 21 14.07V18.26H23.54C23.91 18.26 24.15 18.65 23.99 18.98L20.43 26.1C20.19 26.58 19.48 26.41 19.48 25.88V25.88Z" fill="#275FFF"/>
        </symbol>

        <symbol id="peoples-icon" viewBox="0 0 40 40" fill="none" xmlns="http://www.w3.org/2000/svg">
        <circle opacity="0.2" cx="20" cy="20" r="20" fill="#FFC42E"/>
        <path d="M12 21C13.1 21 14 20.1 14 19C14 17.9 13.1 17 12 17C10.9 17 10 17.9 10 19C10 20.1 10.9 21 12 21ZM13.13 22.1C12.76 22.04 12.39 22 12 22C11.01 22 10.07 22.21 9.22 22.58C8.48 22.9 8 23.62 8 24.43V26H12.5V24.39C12.5 23.56 12.73 22.78 13.13 22.1ZM28 21C29.1 21 30 20.1 30 19C30 17.9 29.1 17 28 17C26.9 17 26 17.9 26 19C26 20.1 26.9 21 28 21ZM32 24.43C32 23.62 31.52 22.9 30.78 22.58C29.93 22.21 28.99 22 28 22C27.61 22 27.24 22.04 26.87 22.1C27.27 22.78 27.5 23.56 27.5 24.39V26H32V24.43ZM24.24 21.65C23.07 21.13 21.63 20.75 20 20.75C18.37 20.75 16.93 21.14 15.76 21.65C14.68 22.13 14 23.21 14 24.39V26H26V24.39C26 23.21 25.32 22.13 24.24 21.65ZM16.07 24C16.16 23.77 16.2 23.61 16.98 23.31C17.95 22.93 18.97 22.75 20 22.75C21.03 22.75 22.05 22.93 23.02 23.31C23.79 23.61 23.83 23.77 23.93 24H16.07ZM20 16C20.55 16 21 16.45 21 17C21 17.55 20.55 18 20 18C19.45 18 19 17.55 19 17C19 16.45 19.45 16 20 16ZM20 14C18.34 14 17 15.34 17 17C17 18.66 18.34 20 20 20C21.66 20 23 18.66 23 17C23 15.34 21.66 14 20 14Z" fill="#FFC42E"/>
        </symbol>

        <symbol id="check-icon" viewBox="0 0 40 40" fill="none" xmlns="http://www.w3.org/2000/svg">
        <circle opacity="0.2" cx="20" cy="20" r="20" fill="#69D9DF"/>
        <path d="M13 15H27C27.55 15 28 15.45 28 16C28 16.55 27.55 17 27 17H13C12.45 17 12 16.55 12 16C12 15.45 12.45 15 13 15Z" fill="#69D9DF"/>
        <path d="M13 21H27C27.55 21 28 20.55 28 20C28 19.45 27.55 19 27 19H13C12.45 19 12 19.45 12 20C12 20.55 12.45 21 13 21Z" fill="#69D9DF"/>
        <path d="M13 25H18C18.55 25 19 24.55 19 24C19 23.45 18.55 23 18 23H13C12.45 23 12 23.45 12 24C12 24.55 12.45 25 13 25Z" fill="#69D9DF"/>
        <path d="M13 29H18C18.55 29 19 28.55 19 28C19 27.45 18.55 27 18 27H13C12.45 27 12 27.45 12 28C12 28.55 12.45 29 13 29Z" fill="#69D9DF"/>
        <path d="M23.4101 26.17L22.7001 25.46C22.3101 25.07 21.6801 25.07 21.2901 25.46C20.9001 25.85 20.9001 26.48 21.2901 26.87L22.7101 28.29C23.1001 28.68 23.7301 28.68 24.1201 28.29L27.2901 25.12C27.6801 24.73 27.6801 24.1 27.2901 23.71C26.9001 23.32 26.2701 23.32 25.8801 23.71L23.4101 26.17Z" fill="#69D9DF"/>
        <path d="M12 12C12 12.55 12.45 13 13 13H27C27.55 13 28 12.55 28 12C28 11.45 27.55 11 27 11H13C12.45 11 12 11.45 12 12Z" fill="#69D9DF"/>
        </symbol>

        <symbol id="eye-icon" viewBox="0 0 24 24" fill="none" xmlns="http://www.w3.org/2000/svg">
        <path opacity="0.2" d="M12 4C7 4 2.73 7.11 1 11.5C2.73 15.89 7 19 12 19C17 19 21.27 15.89 23 11.5C21.27 7.11 17 4 12 4ZM12 16.5C9.24 16.5 7 14.26 7 11.5C7 8.74 9.24 6.5 12 6.5C14.76 6.5 17 8.74 17 11.5C17 14.26 14.76 16.5 12 16.5ZM12 8.5C10.34 8.5 9 9.84 9 11.5C9 13.16 10.34 14.5 12 14.5C13.66 14.5 15 13.16 15 11.5C15 9.84 13.66 8.5 12 8.5Z" fill="white"/>
        </symbol>

        <symbol id="notificaton-icon" viewBox="0 0 24 25" fill="none" xmlns="http://www.w3.org/2000/svg">
        <path fill-rule="evenodd" clip-rule="evenodd" d="M13.5765 21.51C13.5765 22.61 12.6865 23.5 11.5865 23.5C10.4865 23.5 9.59648 22.61 9.59648 21.51H13.5765ZM18.5865 12.3738V17.5L19.8765 18.79C20.5065 19.42 20.0565 20.5 19.1665 20.5H3.99648C3.10648 20.5 2.66648 19.42 3.29648 18.79L4.58648 17.5V11.5C4.58648 8.15 6.94648 5.35 10.0865 4.67V3.5C10.0865 2.67 10.7565 2 11.5865 2C12.4165 2 13.0865 2.67 13.0865 3.5V4.67C13.7812 4.82044 14.4377 5.07465 15.0389 5.41562C14.1514 6.1493 13.5859 7.25861 13.5859 8.5C13.5859 10.7091 15.3768 12.5 17.5859 12.5C17.9314 12.5 18.2667 12.4562 18.5865 12.3738Z" fill="#2C3B8E"/>
        <circle cx="17.5859" cy="8.5" r="3" fill="#FFC42E"/>
        </symbol>



    </def>
</svg>
